<?xml version="1.0" encoding="UTF-8"?> <!-- Generator: Adobe Illustrator 23.0.1, SVG Export Plug-In . SVG Version: 6.00 Build 0) --> <svg xmlns="http://www.w3.org/2000/svg" xmlns:xlink="http://www.w3.org/1999/xlink" version="1.1" id="Calque_1" x="0px" y="0px" viewBox="0 0 738 647.3" style="enable-background:new 0 0 738 647.3;" xml:space="preserve"> <style type="text/css"> .st0{fill:#313131;} .st1{opacity:9.900000e-02;} .st2{fill:#FFFFFF;} .st3{fill:#37BC74;} .st4{opacity:0.215;fill:#FFFFFF;enable-background:new ;} .st5{opacity:0.244;fill:#FFFFFF;enable-background:new ;} .st6{fill:#444444;} .st7{fill:#FFF1A7;} .st8{fill:#FFE13C;} .st9{fill:#EDEDED;} </style> <g id="img_creation_service" transform="translate(17705.965 15059)"> <g id="Groupe_1083" transform="translate(-17944 -16222)"> <path id="Rectangle_888" class="st0" d="M489.5,1225.3l271.7,57.8c35.6,7.6,58.4,42.6,50.8,78.3l-50.5,237.5 c-7.6,35.6-42.6,58.4-78.3,50.8l-271.7-57.8c-35.6-7.6-58.4-42.6-50.8-78.3l50.5-237.5C418.8,1240.4,453.9,1217.7,489.5,1225.3z"></path> </g> <g id="Groupe_1085" transform="translate(0 -1)" class="st1"> <rect x="-17463.7" y="-14848" transform="matrix(0.3461 -0.9382 0.9382 0.3461 2463.1409 -26052.6621)" class="st2" width="10" height="109.2"></rect> <rect x="-17447.4" y="-14854.5" transform="matrix(0.5585 -0.8295 0.8295 0.5585 4654.6343 -20953.6836)" class="st2" width="180.8" height="10"></rect> <rect x="-17260.5" y="-14948.9" transform="matrix(0.6266 -0.7794 0.7794 0.6266 5155.8906 -19006.6562)" class="st2" width="10" height="130.9"></rect> <rect x="-17218.7" y="-14881" transform="matrix(0.6963 -0.7178 0.7178 0.6963 5462.0791 -16843.5918)" class="st2" width="93.3" height="10"></rect> <g id="Ellipse_464" transform="translate(-17533 -14837)"> <circle class="st0" cx="23.5" cy="23.5" r="23.5"></circle> <path class="st2" d="M23.5,47C10.5,47,0,36.5,0,23.5S10.5,0,23.5,0S47,10.5,47,23.5S36.5,47,23.5,47z M23.5,10 C16.1,10,10,16.1,10,23.5S16.1,37,23.5,37S37,30.9,37,23.5S30.9,10,23.5,10z"></path> </g> <g id="Ellipse_465" transform="translate(-17431 -14798)"> <circle class="st0" cx="23.5" cy="23.5" r="23.5"></circle> <path class="st2" d="M23.5,47C10.5,47,0,36.5,0,23.5S10.5,0,23.5,0S47,10.5,47,23.5S36.5,47,23.5,47z M23.5,10 C16.1,10,10,16.1,10,23.5S16.1,37,23.5,37S37,30.9,37,23.5S30.9,10,23.5,10z"></path> </g> <g id="Ellipse_466" transform="translate(-17330 -14948)"> <circle class="st0" cx="23.5" cy="23.5" r="23.5"></circle> <path class="st2" d="M23.5,47C10.5,47,0,36.5,0,23.5S10.5,0,23.5,0S47,10.5,47,23.5S36.5,47,23.5,47z M23.5,10 C16.1,10,10,16.1,10,23.5S16.1,37,23.5,37S37,30.9,37,23.5S30.9,10,23.5,10z"></path> </g> <g id="Ellipse_467" transform="translate(-17228 -14866)"> <circle class="st0" cx="23.5" cy="23.5" r="23.5"></circle> <path class="st2" d="M23.5,47C10.5,47,0,36.5,0,23.5S10.5,0,23.5,0S47,10.5,47,23.5S36.5,47,23.5,47z M23.5,10 C16.1,10,10,16.1,10,23.5S16.1,37,23.5,37S37,30.9,37,23.5S30.9,10,23.5,10z"></path> </g> </g> <g transform="matrix(1, 0, 0, 1, -17705.96, -15059)"> <path id="Rectangle_1163-2" class="st2" d="M591,285.3H480c-12.2,0-22-9.8-22-22V154c0-12.2,9.8-22,22-22h111c12.2,0,22,9.8,22,22 v109.3C613,275.5,603.1,285.3,591,285.3z"></path> </g> <g id="Groupe_1093" transform="translate(45 -33)"> <g id="Groupe_1084" transform="translate(-17958 -16514)"> <g transform="matrix(1, 0, 0, 1, 207.04, 1488)"> <path id="Union_40-2" class="st3" d="M110,25h194c12.2,0,22,9.8,22,22v126.3c0,12.2-9.8,22-22,22H110c-12.2,0-22-9.8-22-22V47 C88,34.8,97.8,25,110,25z"></path> </g> <path id="Rectangle_983" class="st4" d="M406.5,1553h87c3,0,5.5,2.5,5.5,5.5l0,0c0,3-2.5,5.5-5.5,5.5h-87c-3,0-5.5-2.5-5.5-5.5 l0,0C401,1555.5,403.5,1553,406.5,1553z"></path> <path id="Rectangle_987" class="st4" d="M406.5,1634h69c3,0,5.5,2.5,5.5,5.5l0,0c0,3-2.5,5.5-5.5,5.5h-69c-3,0-5.5-2.5-5.5-5.5 l0,0C401,1636.5,403.5,1634,406.5,1634z"></path> <path id="Rectangle_984" class="st4" d="M406.5,1593h41c3,0,5.5,2.5,5.5,5.5l0,0c0,3-2.5,5.5-5.5,5.5h-41c-3,0-5.5-2.5-5.5-5.5 l0,0C401,1595.5,403.5,1593,406.5,1593z"></path> </g> <path class="st5" d="M-17613.4-14943.4l-1.8-3c-1-1.1-4.4-4.4-7.5-7.4c-2-1.9-2-5.1-0.1-7.1c1.9-2,5.1-2,7.1-0.1c0,0,2,2,4.1,4 c0.2,0.2,0.4,0.4,0.5,0.5c1.9-2,4.5-4.5,7-7c5.3-5.3,10.6-10.5,10.6-10.5c2-1.9,5.1-1.9,7.1,0c1.9,2,1.9,5.1,0,7.1 c-7.8,7.8-19.6,19.5-20.9,20.9c-0.6,0.7-1.4,1.2-2.3,1.5L-17613.4-14943.4z M-17615-14946.1L-17615-14946.1L-17615-14946.1z M-17615.5-14946.9c0,0.1,0.1,0.1,0.1,0.2l0,0C-17615.5-14946.8-17615.5-14946.8-17615.5-14946.9z"></path> <path class="st5" d="M-17613.4-14902.4l-1.8-3c-1-1.1-4.4-4.4-7.5-7.4c-2-1.9-2-5.1-0.1-7.1c1.9-2,5.1-2,7.1-0.1c0,0,2,2,4.1,4 c0.2,0.2,0.4,0.4,0.5,0.5c1.9-2,4.5-4.5,7-7c5.3-5.3,10.6-10.5,10.6-10.5c2-1.9,5.1-1.9,7.1,0c1.9,2,1.9,5.1,0,7.1 c-7.8,7.8-19.6,19.5-20.9,20.9c-0.6,0.7-1.4,1.2-2.3,1.5L-17613.4-14902.4z M-17615-14905.1L-17615-14905.1L-17615-14905.1z M-17615.5-14905.9c0,0.1,0.1,0.1,0.1,0.2l0,0C-17615.5-14905.8-17615.5-14905.8-17615.5-14905.9z"></path> <path class="st5" d="M-17613.4-14859.4l-1.8-3c-1-1.1-4.4-4.4-7.5-7.4c-2-1.9-2-5.1-0.1-7.1c1.9-2,5.1-2,7.1-0.1c0,0,2,2,4.1,4 c0.2,0.2,0.4,0.4,0.5,0.5c1.9-2,4.5-4.5,7-7c5.3-5.3,10.6-10.5,10.6-10.5c2-1.9,5.1-1.9,7.1,0c1.9,2,1.9,5.1,0,7.1 c-7.8,7.8-19.6,19.5-20.9,20.9c-0.6,0.7-1.4,1.2-2.3,1.5L-17613.4-14859.4z M-17615-14862.1L-17615-14862.1L-17615-14862.1z M-17615.5-14862.9c0,0.1,0.1,0.1,0.1,0.2l0,0C-17615.5-14862.8-17615.5-14862.8-17615.5-14862.9z"></path> </g> <g id="Groupe_1095" transform="translate(-44 14)"> <g transform="matrix(1, 0, 0, 1, -17661.96, -15073)"> <path id="Rectangle_1164-2" class="st3" d="M487,522.3H348c-12.2,0-22-9.8-22-22V363c0-12.2,9.8-22,22-22h139 c12.2,0,22,9.8,22,22v137.3C509,512.5,499.1,522.3,487,522.3z"></path> </g> <path class="st2" d="M-17235.3-14610h-18.4c-2.8,0-5-2.2-5-5v-1.9c-5.3-3.2-9.3-8-11.5-13.8c-2.6-6.9-2.4-14.3,0.6-21 c3-6.7,8.4-11.8,15.3-14.4c6.9-2.6,14.3-2.4,21,0.6c6.7,3,11.8,8.4,14.4,15.3c2.6,6.9,2.4,14.3-0.6,21c-2.3,5.1-6.1,9.4-10.9,12.3 v1.9C-17230.3-14612.2-17232.5-14610-17235.3-14610z M-17235.3-14619.9L-17235.3-14619.9L-17235.3-14619.9z M-17248.7-14620h8.4 c0-1.9,1.2-3.7,2.9-4.4c3.9-1.8,7-4.9,8.8-8.8c1.9-4.3,2.1-9,0.4-13.4s-4.9-7.8-9.2-9.7c-4.3-1.9-9-2.1-13.4-0.4 c-4.4,1.7-7.8,4.9-9.7,9.2c-1.9,4.3-2.1,9-0.4,13.4c1.7,4.4,4.9,7.8,9.2,9.7C-17249.9-14623.7-17248.8-14621.9-17248.7-14620z"></path> <g id="Soustraction_95" transform="translate(-17272 -14642)"> <path class="st2" d="M27.5,53.5c-3.6,0-6.9-2-8.9-5.2l-0.5-0.8h0.9h16.9h0.9l-0.5,0.8C34.4,51.5,31.1,53.5,27.5,53.5z"></path> <path class="st2" d="M27.5,53c3.4,0,6.6-1.9,8.4-5H19.1C20.9,51.1,24.1,53,27.5,53 M27.5,54c-3.8,0-7.2-2.1-9.3-5.5 c-0.2-0.3-0.2-0.7,0-1c0.2-0.3,0.5-0.5,0.9-0.5h16.9c0.4,0,0.7,0.2,0.9,0.5c0.2,0.3,0.2,0.7,0,1C34.7,51.9,31.3,54,27.5,54z"></path> </g> <path class="st2" d="M-17244.5-14678.5c-1.7,0-3-1.3-3-3v-10c0-1.7,1.3-3,3-3c1.7,0,3,1.3,3,3v10 C-17241.5-14679.8-17242.8-14678.5-17244.5-14678.5z"></path> <path class="st2" d="M-17217.5-14662.5c-0.8,0-1.5-0.3-2.1-0.9c-1.2-1.2-1.2-3.1,0-4.2l7-7c1.2-1.2,3.1-1.2,4.2,0 c1.2,1.2,1.2,3.1,0,4.2l-7,7C-17216-14662.8-17216.7-14662.5-17217.5-14662.5z"></path> <path class="st2" d="M-17271.5-14662.5c-0.8,0-1.5-0.3-2.1-0.9l-7-7c-1.2-1.2-1.2-3.1,0-4.2c1.2-1.2,3.1-1.2,4.2,0l7,7 c1.2,1.2,1.2,3.1,0,4.2C-17270-14662.8-17270.7-14662.5-17271.5-14662.5z"></path> <path class="st2" d="M-17195.5-14638.5h-10c-1.7,0-3-1.3-3-3s1.3-3,3-3h10c1.7,0,3,1.3,3,3S-17193.8-14638.5-17195.5-14638.5z"></path> <path class="st2" d="M-17234.5-14599.5h-20c-1.7,0-3-1.3-3-3s1.3-3,3-3h20c1.7,0,3,1.3,3,3S-17232.8-14599.5-17234.5-14599.5z"></path> <path class="st2" d="M-17283.5-14638.5h-10c-1.7,0-3-1.3-3-3s1.3-3,3-3h10c1.7,0,3,1.3,3,3S-17281.8-14638.5-17283.5-14638.5z"></path> </g> <g id="Groupe_1094" transform="translate(-17221.439 -14903.692)"> <ellipse id="Ellipse_194" class="st2" cx="45.7" cy="44.7" rx="45.7" ry="44.7"></ellipse> <g id="UX" transform="translate(12.317 10.194)"> <g> <path id="Tracé_102_1_" class="st2" d="M34.3,68.5c18.9,0,34.3-15.3,34.3-34.3S53.2,0,34.3,0C15.3,0,0,15.3,0,34.3v0 C0,53.2,15.3,68.5,34.3,68.5z"></path> <path class="st6" d="M34.3,71.5C13.7,71.5-3,54.8-3,34.3S13.7-3,34.3-3c20.6,0,37.3,16.7,37.3,37.3S54.8,71.5,34.3,71.5z M34.3,3C17,3,3,17,3,34.3s14,31.3,31.3,31.3c17.2,0,31.3-14,31.3-31.3S51.5,3,34.3,3z"></path> </g> <g> <path id="Tracé_103_1_" class="st2" d="M34.3,57C46.8,57,57,46.8,57,34.3c0-12.6-10.2-22.7-22.7-22.7S11.5,21.7,11.5,34.3l0,0 C11.5,46.8,21.7,57,34.3,57z"></path> <path class="st6" d="M34.3,60C20.1,60,8.5,48.5,8.5,34.3c0-14.2,11.5-25.7,25.7-25.7S60,20.1,60,34.3C60,48.5,48.5,60,34.3,60z M34.3,14.5c-10.9,0-19.7,8.9-19.7,19.7S23.4,54,34.3,54S54,45.2,54,34.3S45.2,14.5,34.3,14.5z"></path> </g> <path class="st6" d="M72.5,89.8c-2.7,0-5.5-1.1-7.6-3c-0.1-0.1-0.1-0.1-0.2-0.2L54.6,75.4c-3.6-4-3.7-10.9-0.2-15.6 c0.1-0.1,0.1-0.1,0.2-0.2c1.7-1.9,4.2-3.1,6.9-3.2c2.9-0.1,5.8,1,8,3c0.1,0.1,0.1,0.1,0.2,0.2l10,11.1c4.3,4.1,4.3,11.2,0.1,15.9 l0,0c-1.7,1.9-4.2,3.1-6.9,3.2C72.8,89.8,72.6,89.8,72.5,89.8z M69.1,82.5c1,0.9,2.3,1.4,3.6,1.3c1.1,0,2-0.5,2.7-1.2v0 c2.1-2.3,2.2-5.8,0.2-7.6c-0.1-0.1-0.1-0.1-0.2-0.2l-10-11.1c-1-0.9-2.3-1.4-3.6-1.3c-1,0-1.9,0.4-2.6,1.1 c-1.7,2.4-1.8,6-0.1,7.9L69.1,82.5z"></path> <path class="st6" d="M32.2,49.7c-7.4,0-13.3-6.9-13.3-15.4c0-1.7,1.3-3,3-3s3,1.3,3,3c0,5.1,3.4,9.4,7.3,9.4c1.7,0,3,1.3,3,3 S33.9,49.7,32.2,49.7z"></path> </g> </g> <g id="Groupe_1096" transform="translate(542 46)"> <g id="Groupe_1090" transform="translate(223 59)"> <g transform="matrix(1, 0, 0, 1, -18470.96, -15164)"> <path id="Union_46-2" class="st2" d="M191.2,494.7c-0.2,0.2-0.4,0.4-0.6,0.6c-38.8,37.5-101.3,78.5-142.8,84.5 c11-32.8,34.9-57.4,34.9-57.4s-8,6.2-35.2,8.3c15.3-61.1,56.5-103.1,64.3-112c-15.2-4.1-41.8-4.9-86.3,9.7 c53.5-61.1,100.4-74.1,125.6-76.1c11.7-18.2,25.3-35.1,40.6-50.3c14-14,29.2-26.6,45.6-37.6c15.4-10.3,31.8-19.1,48.9-26.1 c16-6.6,32.7-11.4,49.7-14.3c15.9-2.7,32-3.4,48.1-2c0.9,10.2,0.9,20.5,0.1,30.7l0,0c-0.1,0.7-0.1,1.3-0.2,2c0,0,0,0.1,0,0.1 c0,0.1,0,0.2,0,0.3c-0.4,4.8-1.1,9.6-1.8,14.5c0,0.2-0.1,0.4-0.1,0.6c-2.9,16.8-7.5,33.2-13.9,49c-0.1,0.3-0.2,0.5-0.3,0.8 l-0.3,0.8c-7,16.9-15.6,33-25.8,48.2c-11,16.4-23.6,31.7-37.6,45.6c-9.9,10-20.6,19.2-31.8,27.7c-4.7,3.6-9.6,7-14.5,10.3 c-1,24.2-12.2,73-76.3,129.1C196.4,536.5,195.5,509.9,191.2,494.7z M384.2,252.7C384.2,252.7,384.2,252.7,384.2,252.7 L384.2,252.7z"></path> </g> </g> <g id="Groupe_1091" transform="translate(224 58)"> <g id="Groupe_1088" transform="translate(47.412 145.104)"> <path id="Tracé_780" class="st7" d="M-18405.3-14892.1c0.2,1.6-48.7,46-65.6,113.7c27.2-2.1,35.2-8.3,35.2-8.3 s-23.9,24.7-34.9,57.4c41.5-6,104-47,142.8-84.5S-18405.5-14893.7-18405.3-14892.1z"></path> <path id="Tracé_781" class="st8" d="M-18387.7-14877.3c0.1,1-30.1,28.1-40.6,69.5c16.8-1.3,21.8-5.1,21.8-5.1 s-14.8,15.1-21.6,35.1c25.7-3.7,64.3-28.7,88.3-51.7C-18315.8-14852.4-18387.8-14878.3-18387.7-14877.3z"></path> </g> <g id="Groupe_1087" transform="translate(-220 -131)"> <path id="Tracé_778" class="st3" d="M-18080.3-14679.8c0,0-65.2-16.2-145.2,75.2c86.1-28.3,104.9,0.9,104.9,0.9 L-18080.3-14679.8z"></path> <path id="Tracé_779" class="st3" d="M-17994.1-14596.6c0,0,16.2,65.2-75.2,145.2c28.3-86.1-0.9-104.9-0.9-104.9 L-17994.1-14596.6z"></path> <path id="Soustraction_91" class="st2" d="M-18066.5-14546.1c-10-11.3-20.8-22.6-32-33.8c-10.9-10.9-22.1-21.5-33.1-31.3 c6.3-21.7,15.4-42.5,27.1-61.9c12.6-21,27.8-40.4,45.2-57.7c14-14,29.2-26.6,45.6-37.6c15.4-10.3,31.8-19.1,48.9-26.1 c16-6.6,32.7-11.4,49.7-14.3c15.9-2.7,32-3.4,48.1-2c1.4,16,0.7,32.2-2,48.1c-2.9,17.1-7.7,33.7-14.3,49.7 c-7,17.2-15.8,33.5-26.1,48.9c-11,16.4-23.6,31.7-37.6,45.7c-17.3,17.4-36.7,32.6-57.8,45.2 C-18023.9-14561.6-18044.8-14552.5-18066.5-14546.1L-18066.5-14546.1z"></path> <circle id="Ellipse_471" class="st3" cx="-17963.4" cy="-14713.6" r="47"></circle> <circle id="Ellipse_472" class="st2" cx="-17963.4" cy="-14713.6" r="30"></circle> <path id="Soustraction_93" class="st9" d="M-18066.5-14546.2L-18066.5-14546.2c-10-11.3-20.8-22.6-32-33.8 c-6.6-6.6-13.2-13-19.9-19.2c31.7-2.4,63-8.9,93-19.3c14-4.9,27.6-10.7,40.8-17.5c12.5-6.4,24.6-13.8,36.1-22 c10.9-7.8,21.1-16.5,30.6-26c9-9,17.1-18.9,24.3-29.4c6.9-10.1,12.7-21,17.3-32.3c4.5-11.1,7.7-22.8,9.6-34.7 c-0.5,5.7-1.2,11.6-2.1,17.4c-2.9,17.1-7.7,33.7-14.3,49.7c-7,17.2-15.8,33.5-26.1,48.9c-11,16.4-23.6,31.7-37.6,45.7 c-17.3,17.4-36.7,32.6-57.8,45.2C-18024-14561.6-18044.8-14552.5-18066.5-14546.2L-18066.5-14546.2z"></path> <path id="Soustraction_94" class="st3" d="M-18101.7-14582.3c22.3-22.3,43.7-40,57.3-48.1c-8.1,13.7-25.8,35-48.1,57.3 c-22.3,22.3-43.7,40-57.3,48.1C-18141.7-14538.6-18124-14560-18101.7-14582.3z"></path> </g> </g> </g> </g> </svg> 