<?xml version="1.0" encoding="UTF-8"?> <!-- Generator: Adobe Illustrator 23.0.1, SVG Export Plug-In . SVG Version: 6.00 Build 0) --> <svg xmlns="http://www.w3.org/2000/svg" xmlns:xlink="http://www.w3.org/1999/xlink" version="1.1" id="Calque_1" x="0px" y="0px" viewBox="0 0 518.8 497.3" style="enable-background:new 0 0 518.8 497.3;" xml:space="preserve"> <style type="text/css"> .st0{fill:#313131;} .st1{fill:#37BC74;} .st2{clip-path:url(#SVGID_2_);} .st3{fill:#DBDBDB;} .st4{fill:#EDEDED;} .st5{fill:#FFFFFF;} .st6{opacity:0.249;fill:none;stroke:#FFFFFF;stroke-width:8;stroke-linecap:round;enable-background:new ;} .st7{fill:none;stroke:#FFFFFF;stroke-width:8;stroke-linecap:round;} .st8{opacity:0.279;fill:none;stroke:#FFFFFF;stroke-width:7;stroke-linecap:round;stroke-linejoin:round;enable-background:new ;} .st9{fill:#37BC74;stroke:#FFFFFF;stroke-width:6;stroke-linecap:round;stroke-linejoin:round;stroke-miterlimit:10;} .st10{fill:none;stroke:#FFFFFF;stroke-width:6;stroke-linecap:round;stroke-linejoin:round;stroke-miterlimit:10;} .st11{fill:#303030;} .st12{fill:none;stroke:#FFFFFF;stroke-width:8;stroke-linecap:round;stroke-linejoin:round;} .st13{fill:none;stroke:#37BC74;stroke-width:6;} .st14{fill:none;stroke:#37BC74;stroke-width:8;} .st15{fill:none;stroke:#FFFFFF;stroke-width:6;stroke-linecap:round;} </style> <g id="img_developpement" transform="translate(17616.998 15125)"> <g id="Groupe_1104" transform="translate(20 -84)"> <g id="Groupe_1083" transform="translate(-17944 -16222)"> <path id="Rectangle_888" class="st0" d="M508.5,1277.5l202.3,43c26.5,5.6,43.5,31.7,37.8,58.3l-37.6,176.8 c-5.6,26.5-31.7,43.5-58.3,37.8l-202.3-43c-26.5-5.6-43.5-31.7-37.8-58.3l37.6-176.8C455.9,1288.8,482,1271.8,508.5,1277.5z"></path> </g> </g> <path id="Rectangle_1193" class="st1" d="M-17185-14863.9h-167.5c-9,0-16.4-7.3-16.4-16.4v-164.8c0-9,7.3-16.4,16.4-16.4h167.5 c9,0,16.4,7.3,16.4,16.4v164.8C-17168.6-14871.3-17176-14863.9-17185-14863.9z"></path> <g> <defs> <path id="SVGID_1_" d="M-17415.5-15027.8l202.3,43c26.5,5.6,43.5,31.7,37.8,58.3l-37.6,176.8c-5.6,26.5-31.7,43.5-58.3,37.8 l-202.3-43c-26.5-5.6-43.5-31.7-37.8-58.3l37.6-176.8C-17468.1-15016.5-17442-15033.4-17415.5-15027.8z"></path> </defs> <clipPath id="SVGID_2_"> <use xlink:href="#SVGID_1_" style="overflow:visible;"></use> </clipPath> <g id="Groupe_de_masques_128" transform="translate(-17576.947 -15093.452)" class="st2"> <g id="Groupe_1106" transform="translate(-46.052 472.452)"> <path id="Tracé_791" class="st3" d="M285.7-133h39.8V-7.9h-20.8L285.7-133z"></path> <rect id="Rectangle_1194" x="79.1" y="-150.1" class="st4" width="356.7" height="19.4"></rect> </g> </g> </g> <path id="Rectangle_1196" class="st5" d="M-17451.6-14962.2h-61.8c-9,0-16.4-7.3-16.4-16.4v-62.1c0-9,7.3-16.4,16.4-16.4h61.8 c9,0,16.4,7.3,16.4,16.4v62.1C-17435.2-14969.5-17442.5-14962.2-17451.6-14962.2z"></path> <line id="Ligne_265" class="st6" x1="-17323.7" y1="-14900.5" x2="-17321.9" y2="-14900.5"></line> <line id="Ligne_266" class="st7" x1="-17336.4" y1="-14900.5" x2="-17334.6" y2="-14900.5"></line> <path id="Tracé_798" class="st8" d="M-17343.3-15032.6v142.1h148"></path> <line id="Ligne_267" class="st7" x1="-17320.2" y1="-14906.2" x2="-17320.2" y2="-15014.2"></line> <line id="Ligne_270" class="st7" x1="-17280" y1="-14906.2" x2="-17280" y2="-15014.2"></line> <line id="Ligne_272" class="st7" x1="-17239.7" y1="-14906.2" x2="-17239.7" y2="-15014.2"></line> <line id="Ligne_268" class="st7" x1="-17300.1" y1="-14906.2" x2="-17300.1" y2="-14966.6"></line> <line id="Ligne_269" class="st7" x1="-17259.8" y1="-14906.2" x2="-17259.8" y2="-15000.1"></line> <line id="Ligne_271" class="st7" x1="-17219.6" y1="-14906.2" x2="-17219.6" y2="-14971.8"></line> <line id="Ligne_273" class="st7" x1="-17199.5" y1="-14906.2" x2="-17199.5" y2="-14942"></line> <g id="Groupe_1108" transform="translate(-17231 -15090.538)"> <ellipse id="Ellipse_194" class="st1" cx="3.2" cy="90" rx="36.1" ry="35.3"></ellipse> <g id="UX" transform="translate(13.06 10.808)"> <path id="Tracé_102" class="st9" d="M-9.2,106.1c14.9,0,27.1-12.1,27.1-27.1S5.7,51.9-9.2,51.9S-36.3,64.1-36.3,79l0,0 C-36.3,93.9-24.2,106.1-9.2,106.1z"></path> <path id="Tracé_103" class="st9" d="M-9.2,97c9.9,0,18-8,18-18s-8-18-18-18s-18,8-18,18v0C-27.2,88.9-19.1,97-9.2,97z"></path> <path id="Tracé_104" class="st10" d="M25,118.7c-2.1,2.3-5.9,2.3-8.4,0l-8-8.8c-2.1-2.3-2.1-6.5,0-9.3c2.1-2.3,5.9-2.3,8.4,0 l8,8.8C27.5,111.8,27.5,115.9,25,118.7z"></path> <path id="Tracé_105" class="st10" d="M-10.9,88.8c-4.5,0-8.2-4.5-8.2-9.8"></path> </g> </g> <g id="Groupe_1109" transform="translate(-17613.281 -14876.82)"> <g id="Groupe_1054" transform="translate(-3.719 -69.663)"> <path id="Union_50" class="st5" d="M76.8,175.4c-6.2,0-11.2-5-11.2-11.2h34.3V32.4c0-8.2,6.7-14.9,14.9-14.9h187.6 c8.2,0,14.9,6.7,14.9,14.9v131.8h35.7c0,6.2-5,11.2-11.2,11.2H76.8z"></path> <path id="Rectangle_402" class="st11" d="M116.3,29.4h183.2c4.1,0,7.4,3.3,7.4,7.4v113.2c0,4.1-3.3,7.4-7.4,7.4H116.3 c-4.1,0-7.4-3.3-7.4-7.4V36.9C108.8,32.8,112.2,29.4,116.3,29.4z"></path> </g> </g> <g id="Groupe_1110" transform="translate(83.367 -35.018)"> <path id="Rectangle_1164" class="st1" d="M-17275.1-14656.1h-72c-9,0-16.4-7.3-16.4-16.4v-71c0-9,7.3-16.4,16.4-16.4h72 c9,0,16.4,7.3,16.4,16.4v71C-17258.7-14663.5-17266-14656.1-17275.1-14656.1z"></path> </g> <line id="Ligne_274" class="st7" x1="-17492.5" y1="-14901.1" x2="-17492.5" y2="-14805"></line> <line id="Ligne_275" class="st6" x1="-17474.4" y1="-14843" x2="-17474.4" y2="-14812.2"></line> <path id="Tracé_799" class="st12" d="M-17467.4-14894.8l-7.1,7.1l7.1,7.1"></path> <path id="Tracé_800" class="st12" d="M-17439.9-14894.8l7.1,7.1l-7.1,7.1"></path> <line id="Ligne_276" class="st6" x1="-17458.5" y1="-14879.3" x2="-17448.7" y2="-14894.8"></line> <line id="Ligne_277" class="st6" x1="-17474.4" y1="-14857.5" x2="-17454.4" y2="-14857.5"></line> <line id="Ligne_278" class="st6" x1="-17458.1" y1="-14812.2" x2="-17421.8" y2="-14812.2"></line> <line id="Ligne_279" class="st6" x1="-17458.1" y1="-14827.4" x2="-17438.1" y2="-14827.4"></line> <line id="Ligne_280" class="st6" x1="-17441.7" y1="-14857.5" x2="-17385.5" y2="-14857.5"></line> <line id="Ligne_281" class="st6" x1="-17407.3" y1="-14812.2" x2="-17369.2" y2="-14812.2"></line> <line id="Ligne_282" class="st6" x1="-17425.4" y1="-14827.4" x2="-17394.6" y2="-14827.4"></line> <line id="Ligne_283" class="st6" x1="-17458.1" y1="-14842.5" x2="-17421.8" y2="-14842.5"></line> <line id="Ligne_284" class="st6" x1="-17407.3" y1="-14842.5" x2="-17383.7" y2="-14842.5"></line> <g id="Groupe_1111" transform="translate(12.309 10.07)"> <line id="Ligne_285" class="st13" x1="-17519.8" y1="-15013.6" x2="-17492.7" y2="-15018.7"></line> <line id="Ligne_286" class="st13" x1="-17474.4" y1="-15042" x2="-17493.3" y2="-15018.7"></line> <line id="Ligne_287" class="st13" x1="-17481.3" y1="-14992.8" x2="-17492.7" y2="-15018.7"></line> <g id="Ellipse_501" transform="translate(-17520.309 -15106.07)"> <circle class="st5" cx="45.6" cy="63.9" r="7.8"></circle> <circle class="st14" cx="45.6" cy="63.9" r="4.8"></circle> </g> <g id="Ellipse_502" transform="translate(-17581.309 -15068.07)"> <circle class="st5" cx="61.2" cy="54.2" r="7.8"></circle> <circle class="st14" cx="61.2" cy="54.2" r="4.8"></circle> </g> <g id="Ellipse_503" transform="translate(-17532.309 -15043.07)"> <circle class="st5" cx="50.9" cy="50.1" r="10.1"></circle> <circle class="st14" cx="50.9" cy="50.1" r="7.1"></circle> </g> <g id="Ellipse_504" transform="translate(-17549.309 -15080.07)"> <circle class="st5" cx="56.7" cy="61" r="11.5"></circle> <circle class="st14" cx="56.7" cy="61" r="8.6"></circle> </g> </g> <path id="Soustraction_96" class="st5" d="M-17214.1-14719.7h-26.8c-3.7,0-6.7-3-6.7-6.7v-26.8c0-3.7,3-6.7,6.7-6.7h26.8 c3.7,0,6.7,3,6.7,6.7v26.8C-17207.4-14722.7-17210.4-14719.7-17214.1-14719.7z M-17234.2-14750.2c-2.1,0-3.7,1.7-3.7,3.7v13.4 c0,2.1,1.7,3.7,3.7,3.7h13.4c2.1,0,3.7-1.7,3.7-3.7v-13.4c0-2.1-1.7-3.7-3.7-3.7H-17234.2z"></path> <g id="Groupe_1112" transform="translate(-17191.5 -14728.44)"> <line id="Ligne_288" class="st15" x1="-43" y1="-28.8" x2="-43" y2="-37.8"></line> <line id="Ligne_289" class="st15" x1="-28.9" y1="-28.8" x2="-28.9" y2="-37.8"></line> </g> <g id="Groupe_1113" transform="translate(-17191.5 -14669.56)"> <line id="Ligne_288-2" class="st15" x1="-43" y1="-43.9" x2="-43" y2="-52.8"></line> <line id="Ligne_289-2" class="st15" x1="-28.9" y1="-43.9" x2="-28.9" y2="-52.8"></line> </g> <g id="Groupe_1114" transform="translate(-17144.139 -14702.5) rotate(90)"> <line id="Ligne_288-3" class="st15" x1="-44.4" y1="64.1" x2="-44.4" y2="55.1"></line> <line id="Ligne_289-3" class="st15" x1="-30.2" y1="64.1" x2="-30.2" y2="55.1"></line> </g> <g id="Groupe_1115" transform="translate(-17207.861 -14702.5) rotate(90)"> <line id="Ligne_288-4" class="st15" x1="-44.4" y1="47.8" x2="-44.4" y2="38.9"></line> <line id="Ligne_289-4" class="st15" x1="-30.2" y1="47.8" x2="-30.2" y2="38.9"></line> </g> </g> </svg> 