<?xml version="1.0" encoding="UTF-8"?> <!-- Generator: Adobe Illustrator 23.0.1, SVG Export Plug-In . SVG Version: 6.00 Build 0) --> <svg xmlns="http://www.w3.org/2000/svg" xmlns:xlink="http://www.w3.org/1999/xlink" version="1.1" id="Calque_1" x="0px" y="0px" viewBox="0 0 580.7 507.7" style="enable-background:new 0 0 580.7 507.7;" xml:space="preserve"> <style type="text/css"> .st0{fill:#313131;} .st1{opacity:9.200000e-02;enable-background:new ;} .st2{opacity:0.259;} .st3{fill:none;} .st4{fill:#707070;} .st5{fill:#37BC74;} .st6{fill:none;stroke:#FFFFFF;stroke-width:6;stroke-linecap:round;stroke-linejoin:round;} .st7{fill:none;stroke:#FFFFFF;stroke-width:6;stroke-linecap:round;} .st8{fill:#FFFFFF;} .st9{opacity:5.700000e-02;enable-background:new ;} .st10{opacity:0.289;fill:none;stroke:#707070;stroke-width:10;stroke-linecap:round;enable-background:new ;} .st11{opacity:3.400000e-02;enable-background:new ;} .st12{fill:#37BC74;stroke:#37BC74;stroke-width:5;stroke-linecap:round;stroke-linejoin:round;} .st13{fill:#BBC9C1;} .st14{fill:#E8EFEB;} .st15{opacity:0.503;fill:#D2E0D8;enable-background:new ;} .st16{fill:none;stroke:#444444;stroke-width:7;stroke-linecap:round;stroke-linejoin:round;} .st17{fill:none;stroke:#444444;stroke-width:7;stroke-linecap:round;} .st18{fill:#FFFFFF;stroke:#444444;stroke-width:7;stroke-linecap:round;stroke-linejoin:round;} .st19{fill:none;stroke:#444444;stroke-width:5;stroke-linecap:round;} .st20{fill:none;stroke:#FFFFFF;stroke-width:5;} .st21{fill:none;stroke:#FFFFFF;stroke-width:5;stroke-linecap:round;stroke-linejoin:round;} .st22{fill:none;stroke:#FFFFFF;stroke-width:5;stroke-linecap:round;} .st23{fill:#FFFFFF;stroke:#FFFFFF;stroke-width:5;stroke-linecap:round;} </style> <g id="img_vente_en_ligne" transform="translate(17394 15799.375)"> <g id="Groupe_1101" transform="translate(146 -791)"> <g id="Groupe_1098" transform="translate(1 221)"> <g id="Groupe_1058" transform="translate(-17494.947 -15230.452)"> <path id="Rectangle_1131" class="st0" d="M381,390.7l-218.6,46.5c-28.6,6.1-56.9-12.2-63-40.9L58.8,205.2 c-6.1-28.6,12.2-56.9,40.9-63l218.6-46.5c28.6-6.1,56.9,12.2,63,40.9L422,327.7C428,356.4,409.8,384.6,381,390.7z"></path> <path id="Tracé_755" class="st1" d="M152.1,295.8v-4.3h71.7L152.1,295.8z"></path> <path id="Tracé_756" class="st1" d="M143.2,183.1v-4.3h71.7L143.2,183.1z"></path> <g id="Rectangle_1408" transform="matrix(-0.978, 0.208, -0.208, -0.978, 398.196, 362.327)" class="st2"> <path class="st3" d="M78.2,26.5l112.5,0c29.4,0,53.1,23.7,53.1,53.1v94c0,29.4-23.7,53.1-53.1,53.1H78.2 c-29.4,0-53.1-23.7-53.1-53.1v-94C25.1,50.3,48.8,26.5,78.2,26.5z"></path> <path class="st4" d="M193.4,26.6c1.9,0.4,3.2,2.1,3.2,4.1c-0.1,2.3-1.9,3.9-4.2,3.9c-0.6,0-1,0-1.6,0h-6.3c-2.3,0-4-1.8-4-4 s1.8-4,4-4h6.3c0.6,0,1.3,0,1.9,0C192.9,26.6,193.1,26.6,193.4,26.6z M211.2,30.7c0.2,0.1,0.6,0.2,0.8,0.2 c2.7,1.1,5.2,2.6,7.6,4.1c1.9,1.2,2.4,3.7,1.2,5.6s-3.7,2.4-5.6,1.2c-2.1-1.4-4.3-2.5-6.5-3.5c-2-0.9-3-3.3-2.1-5.3 C207.5,31.3,209.4,30.3,211.2,30.7z M166.8,26.6c1.9,0.4,3.2,2,3.2,3.9c0,2.3-1.8,4-4,4h-8c-2.3,0-4-1.8-4-4s1.8-4,4-4h8 C166.2,26.5,166.5,26.5,166.8,26.6z M140.2,26.6c1.9,0.4,3.2,2,3.2,3.9c0,2.3-1.8,4-4,4h-8c-2.3,0-4-1.8-4-4s1.8-4,4-4h8 C139.7,26.5,139.9,26.5,140.2,26.6z M231.6,47.3c1,0.2,1.9,0.7,2.4,1.6c1.7,2.3,3.1,4.9,4.4,7.5c1,2,0.2,4.4-1.9,5.4 c-2,1-4.4,0.2-5.4-1.9c-1-2.2-2.3-4.3-3.8-6.4c-1.3-1.9-0.9-4.3,1-5.6C229.4,47.3,230.5,47.1,231.6,47.3z M113.7,26.6 c1.9,0.4,3.2,2,3.2,3.9c0,2.3-1.8,4-4,4h-8c-2.3,0-4-1.8-4-4s1.8-4,4-4h8C113.1,26.5,113.4,26.5,113.7,26.6z M87,26.6 c1.9,0.4,3.2,2,3.2,3.9c0,2.3-1.8,4-4,4h-8c-1.4,0-2.7,0.1-4,0.2C72,35,70,33.3,69.8,31.1c-0.2-2.3,1.4-4.2,3.6-4.3 c1.5-0.2,3.1-0.2,4.7-0.2h8C86.6,26.5,86.8,26.5,87,26.6z M57,31.8c1.1,0.2,2.2,1,2.7,2.2c1,2,0.2,4.4-1.8,5.4 c-2.2,1.1-4.3,2.4-6.3,3.9c-1.8,1.3-4.3,0.9-5.6-0.9c-1.3-1.8-0.9-4.3,0.9-5.6c2.3-1.7,4.8-3.2,7.4-4.5 C55.1,31.8,56.1,31.7,57,31.8z M240.5,72c1.7,0.4,3.1,1.9,3.1,3.6c0.1,1.4,0.2,2.7,0.2,4V84c0,2.3-1.8,4-4,4s-4-1.8-4-4v-4.3 c0-1.1-0.1-2.3-0.2-3.5c-0.2-2.3,1.5-4.2,3.7-4.3C239.8,71.8,240.1,71.9,240.5,72z M37.5,49.5c0.5,0.1,0.9,0.2,1.3,0.6 c1.9,1.2,2.4,3.7,1.3,5.6c-1.3,2.1-2.5,4.3-3.4,6.5c-0.9,2-3.2,3-5.3,2.2c-2-0.9-3-3.2-2.2-5.3c1.1-2.7,2.5-5.2,4-7.7 C34.2,49.9,35.9,49.1,37.5,49.5z M240.7,98.6c1.9,0.4,3.2,2,3.2,3.9v8c0,2.3-1.8,4-4,4c-2.3,0-4-1.8-4-4v-8c0-2.3,1.8-4,4-4 C240.1,98.5,240.3,98.5,240.7,98.6z M30,74.7c1.9,0.4,3.2,2.1,3.2,4c0,0.3,0,0.6,0,1v7c0,2.3-1.8,4-4,4s-4-1.8-4-4l-0.1-7 c0-0.4,0-0.8,0-1.1c0.1-2.3,1.9-4,4.1-3.9C29.4,74.6,29.8,74.6,30,74.7z M240.7,125.1c1.9,0.4,3.2,2,3.2,3.9v8c0,2.3-1.8,4-4,4 c-2.3,0-4-1.8-4-4v-8c0-2.3,1.8-4,4-4C240.1,125,240.3,125,240.7,125.1z M29.9,101.2c1.9,0.4,3.2,2,3.2,3.9v8c0,2.3-1.8,4-4,4 s-4-1.8-4-4v-8c0-2.3,1.8-4,4-4C29.4,101.1,29.7,101.1,29.9,101.2z M240.7,151.7c1.9,0.4,3.2,2,3.2,3.9v8c0,2.3-1.8,4-4,4 s-4-1.8-4-4v-8c0-2.3,1.8-4,4-4C240.1,151.6,240.3,151.6,240.7,151.7z M29.9,127.8c1.9,0.4,3.2,2,3.2,3.9v8c0,2.3-1.8,4-4,4 s-4-1.8-4-4v-8c0-2.3,1.8-4,4-4C29.4,127.7,29.7,127.7,29.9,127.8z M239.9,178.1c2.1,0.5,3.5,2.5,3.1,4.6 c-0.1,0.6-0.2,1.3-0.4,1.9c-0.5,2.2-1,4.3-1.9,6.5c-0.7,2.1-3.1,3.2-5.2,2.5c-2.1-0.7-3.2-3.1-2.5-5.2c0.6-1.8,1.1-3.6,1.5-5.5 c0.1-0.6,0.2-1.1,0.3-1.6c0.4-2.2,2.5-3.6,4.7-3.3C239.8,178.1,239.9,178.1,239.9,178.1z M29.9,154.3c1.9,0.4,3.2,2,3.2,3.9v8 c0,2.3-1.8,4-4,4s-4-1.8-4-4v-8c0-2.3,1.8-4,4-4C29.4,154.2,29.7,154.2,29.9,154.3z M228.6,201.9c0.6,0.2,1.3,0.4,1.8,0.9 c1.7,1.4,1.9,4,0.4,5.7c-1.9,2.2-4,4.3-6.2,6.1c-1.7,1.4-4.3,1.2-5.6-0.6c-1.4-1.7-1.2-4.3,0.6-5.6c1.9-1.6,3.7-3.3,5.3-5.2 C225.8,202,227.2,201.6,228.6,201.9z M206.8,216.4c1.4,0.3,2.5,1.3,3,2.7c0.7,2.1-0.5,4.3-2.6,5.1c-2.7,0.9-5.6,1.6-8.4,2 c-2.2,0.3-4.3-1.2-4.6-3.4c-0.3-2.2,1.2-4.3,3.4-4.6c2.4-0.4,4.8-1,7.2-1.7C205.4,216.3,206.1,216.2,206.8,216.4z M31.2,180.8 c1.4,0.3,2.7,1.4,3.1,3.1c0.6,2.4,1.3,4.7,2.3,7c0.9,2.1-0.2,4.4-2.2,5.2c-2,0.9-4.4-0.2-5.2-2.2c-1.1-2.7-2-5.5-2.7-8.3 c-0.5-2.2,0.9-4.3,3-4.8C30.1,180.6,30.6,180.6,31.2,180.8z M180.5,218.8c1.9,0.4,3.2,2,3.2,3.9c0,2.3-1.8,4-4,4h-8 c-2.3,0-4-1.8-4-4s1.8-4,4-4h8C179.9,218.7,180.2,218.7,180.5,218.8z M153.9,218.8c1.9,0.4,3.2,2,3.2,3.9c0,2.3-1.8,4-4,4h-8 c-2.3,0-4-1.8-4-4s1.8-4,4-4h8C153.4,218.7,153.7,218.7,153.9,218.8z M127.4,218.8c1.9,0.4,3.2,2,3.2,3.9c0,2.3-1.8,4-4,4h-8 c-2.3,0-4-1.8-4-4s1.8-4,4-4h8C126.8,218.7,127.1,218.7,127.4,218.8z M43.8,203.8c0.7,0.2,1.4,0.6,2,1.1 c1.7,1.8,3.5,3.4,5.6,4.9c1.8,1.3,2.2,3.9,0.8,5.6c-1.3,1.8-3.9,2.2-5.6,0.8c-2.3-1.7-4.5-3.6-6.5-5.7 c-1.5-1.6-1.5-4.2,0.1-5.7C41.1,203.9,42.5,203.6,43.8,203.8z M100.8,218.8c1.9,0.4,3.2,2,3.2,3.9c0,2.3-1.8,4-4,4h-8 c-2.3,0-4-1.8-4-4s1.8-4,4-4h8C100.2,218.7,100.6,218.7,100.8,218.8z M74.3,218.5c2,0.4,3.4,2.3,3.1,4.3 c-0.2,2.2-2.2,3.9-4.4,3.6c-2.9-0.2-5.8-0.8-8.5-1.5c-2.2-0.6-3.5-2.8-2.8-4.9c0.6-2.2,2.8-3.5,4.9-2.8c2.4,0.6,4.8,1,7.2,1.3 C73.9,218.5,74.1,218.5,74.3,218.5z"></path> </g> </g> <path id="Rectangle_1148" class="st5" d="M-17370.3-15012.4h-96.3c-9.8,0-17.7-7.9-17.7-17.7v-93.3c0-9.8,7.9-17.7,17.7-17.7 h96.3c9.8,0,17.7,7.9,17.7,17.7v93.3C-17352.6-15020.3-17360.5-15012.4-17370.3-15012.4z"></path> </g> <g id="Groupe_1199"> <path id="Tracé_785" class="st6" d="M-17454.9-14886.6l9.7,5.1l11.3,42.1h40.2"></path> <path id="Tracé_786" class="st6" d="M-17443-14875.5h59.5l-7.2,26.3h-45.5"></path> <ellipse id="Ellipse_481" class="st6" cx="-17427.4" cy="-14827.1" rx="5.2" ry="4.8"></ellipse> <ellipse id="Ellipse_482" class="st6" cx="-17400" cy="-14827.1" rx="5.2" ry="4.8"></ellipse> <line id="Ligne_246" class="st7" x1="-17431" y1="-14867.2" x2="-17396" y2="-14867.2"></line> <line id="Ligne_247" class="st7" x1="-17399.9" y1="-14858.2" x2="-17427.4" y2="-14858.2"></line> </g> <path id="Rectangle_1180" class="st8" d="M-17341.7-14632.1h-74c-9.8,0-17.7-7.9-17.7-17.7v-72.7c0-9.8,7.9-17.7,17.7-17.7h74 c9.8,0,17.7,7.9,17.7,17.7v72.7C-17324-14640-17331.9-14632.1-17341.7-14632.1z"></path> <g id="Groupe_1099" transform="translate(-352 283.035)"> <path id="Intersection_29" class="st5" d="M-16905.5-15128.2c-0.3-1.9-0.5-3.9-0.5-5.9c0-21,19.3-38,43.1-38 c23.7,0,43.1,17,43.1,38c0,2-0.2,3.9-0.5,5.9c-13.9,3.5-28.2,5.3-42.6,5.2C-16877.3-15122.9-16891.6-15124.7-16905.5-15128.2z"></path> <path id="Intersection_33" class="st9" d="M-16889.8-15163.8c7.9-5.5,17.2-8.4,26.9-8.3c8.2,0,16.3,2.1,23.4,6.1 c-6.7,7.4-16.3,11.6-26.2,11.6C-16874.7-15154.4-16883.2-15157.7-16889.8-15163.8z"></path> <circle id="Ellipse_496" class="st8" cx="-16863.3" cy="-15197" r="35.4"></circle> <line id="Ligne_252" class="st10" x1="-16879.3" y1="-15187.6" x2="-16879.3" y2="-15177.7"></line> <line id="Ligne_253" class="st10" x1="-16859.1" y1="-15187.6" x2="-16859.1" y2="-15177.7"></line> <path id="Intersection_34" class="st11" d="M-16897.9-15190c-3.9-20.3,9.3-39.9,29.5-43.9c20.3-3.9,39.9,9.3,43.9,29.5 c0.7,3.6,0.9,7.4,0.5,11.1c-8.2-2.3-16.7-8.2-23.2-16.8c-0.3-0.4-0.6-0.9-1-1.3c-2.9,4.7-6.5,8.9-10.8,12.4 c-8.9,7.4-19.1,11.2-28,11.2C-16890.8-15187.7-16894.5-15188.5-16897.9-15190z"></path> <path id="Intersection_35" class="st12" d="M-16899.1-15196.3c-3.9-19.7,9-38.8,28.7-42.7c2.3-0.5,4.7-0.7,7.2-0.6 c20-0.2,36.5,16,36.6,36.1c0,1.4-0.1,2.7-0.2,4.1c-8-2.3-16.3-8-22.7-16.3c-0.3-0.4-0.6-0.9-1-1.3c-2.8,4.6-6.4,8.6-10.5,12.1 c-8.6,7.2-18.7,10.9-27.4,10.9C-16892.1-15194-16895.8-15194.8-16899.1-15196.3z"></path> </g> <path id="Rectangle_1181" class="st13" d="M-17151.8-14592.7h-126.3c-9.8,0-17.7-7.9-17.7-17.7v-194.2c0-9.8,7.9-17.7,17.7-17.7 h126.3c9.8,0,17.7,7.9,17.7,17.7v194.2C-17134.1-14600.6-17141.9-14592.7-17151.8-14592.7z"></path> <path id="Rectangle_1182" class="st14" d="M-17106.7-14570.1h-156.9c-9.8,0-17.7-7.9-17.7-17.7v-239.2c0-9.8,7.9-17.7,17.7-17.7 h156.9c9.8,0,17.7,7.9,17.7,17.7v239.2C-17089-14578-17096.9-14570.1-17106.7-14570.1z"></path> <path id="Rectangle_1183" class="st8" d="M-17067.3-14550h-181.1c-9.8,0-17.7-7.9-17.7-17.7v-273c0-9.8,7.9-17.7,17.7-17.7h181.1 c9.8,0,17.7,7.9,17.7,17.7v273C-17049.6-14557.9-17057.4-14550-17067.3-14550z"></path> <path id="Rectangle_1184" class="st14" d="M-17235.4-14832.7h155.3c3.5,0,6.4,2.9,6.4,6.4v87.7c0,3.5-2.9,6.4-6.4,6.4h-155.3 c-3.5,0-6.4-2.9-6.4-6.4v-87.7C-17241.9-14829.8-17239-14832.7-17235.4-14832.7z"></path> <path id="Rectangle_1185" class="st15" d="M-17235.4-14715.2h119.9c3.5,0,6.4,2.9,6.4,6.4v1.6c0,3.5-2.9,6.4-6.4,6.4h-119.9 c-3.5,0-6.4-2.9-6.4-6.4v-1.6C-17241.9-14712.3-17239-14715.2-17235.4-14715.2z"></path> <path id="Rectangle_1186" class="st15" d="M-17235.4-14664.5h155.3c3.5,0,6.4,2.9,6.4,6.4v1.6c0,3.5-2.9,6.4-6.4,6.4h-155.3 c-3.5,0-6.4-2.9-6.4-6.4v-1.6C-17241.9-14661.6-17239-14664.5-17235.4-14664.5z"></path> <path id="Rectangle_1187" class="st15" d="M-17235.4-14642.8h137.6c3.5,0,6.4,2.9,6.4,6.4v1.6c0,3.5-2.9,6.4-6.4,6.4h-137.6 c-3.5,0-6.4-2.9-6.4-6.4v-1.6C-17241.9-14639.9-17239-14642.8-17235.4-14642.8z"></path> <path id="Rectangle_1188" class="st15" d="M-17235.4-14693.5h23.3c3.5,0,6.4,2.9,6.4,6.4v1.6c0,3.5-2.9,6.4-6.4,6.4h-23.3 c-3.5,0-6.4-2.9-6.4-6.4v-1.6C-17241.9-14690.6-17239-14693.5-17235.4-14693.5z"></path> <path id="Rectangle_1189" class="st15" d="M-17192.8-14693.5h11.3c3.5,0,6.4,2.9,6.4,6.4v1.6c0,3.5-2.9,6.4-6.4,6.4h-11.3 c-3.5,0-6.4-2.9-6.4-6.4v-1.6C-17199.2-14690.6-17196.3-14693.5-17192.8-14693.5z"></path> <g id="Groupe_1100" transform="translate(-74)"> <path id="Rectangle_1190" class="st5" d="M-17038.2-14570.9h-173.7c-10.9,0-19.6-8.8-19.6-19.6l0,0c0-10.9,8.8-19.6,19.6-19.6 h173.7c10.9,0,19.6,8.8,19.6,19.6l0,0C-17018.4-14579.7-17027.3-14570.9-17038.2-14570.9z"></path> <path id="Rectangle_1191" class="st8" d="M-17173.5-14594.5h28.2c2.3,0,4,1.8,4,4l0,0c0,2.3-1.8,4-4,4h-28.2c-2.3,0-4-1.8-4-4 l0,0C-17177.5-14592.8-17175.8-14594.5-17173.5-14594.5z"></path> <path id="Rectangle_1192" class="st8" d="M-17129.3-14594.5h67.6c2.3,0,4,1.8,4,4l0,0c0,2.3-1.8,4-4,4h-67.6c-2.3,0-4-1.8-4-4 l0,0C-17133.3-14592.8-17131.5-14594.5-17129.3-14594.5z"></path> </g> <path id="Rectangle_1399" class="st8" d="M-17134.1-14761.9v2.4c0,3.5-2.9,6.4-6.4,6.4h-75.6c-3.5,0-6.4-2.9-6.4-6.4v-2.4 c0-3.5,2.9-6.4,6.4-6.4h75.6C-17136.9-14768.3-17134.1-14765.5-17134.1-14761.9z"></path> <path id="Rectangle_1400" class="st8" d="M-17113.9-14761.9v2.4c0,3.5-2.9,6.4-6.4,6.4h-2.4c-3.5,0-6.4-2.9-6.4-6.4v-2.4 c0-3.5,2.9-6.4,6.4-6.4h2.4C-17116.8-14768.3-17113.9-14765.5-17113.9-14761.9z"></path> <path id="Rectangle_1401" class="st8" d="M-17093.8-14761.9v2.4c0,3.5-2.9,6.4-6.4,6.4h-2.4c-3.5,0-6.4-2.9-6.4-6.4v-2.4 c0-3.5,2.9-6.4,6.4-6.4h2.4C-17096.7-14768.3-17093.8-14765.5-17093.8-14761.9z"></path> <g id="Groupe_1198" transform="translate(3.61 0.267)"> <g id="Groupe_1103" transform="translate(-17452 -14702.245)"> <g id="Groupe_1102" transform="translate(0 0)"> <path id="Tracé_789" class="st16" d="M42.3,7.1c-5,9.8-4.6,21.5,1.2,30.8"></path> <path id="Tracé_790" class="st16" d="M97.2,37.9c9.1-14.8,4.4-34.2-10.5-43.3c-8.1-5.1-18.2-6-27.2-2.7"></path> </g> <line id="Ligne_250" class="st17" x1="46.6" y1="-5.1" x2="70.6" y2="22.6"></line> <circle id="Ellipse_492" class="st18" cx="70.6" cy="21.8" r="7.2"></circle> <line id="Ligne_251" class="st17" x1="59.5" y1="44.7" x2="80.7" y2="44.7"></line> </g> <line id="Ligne_342" class="st19" x1="-17381.9" y1="-14711.7" x2="-17381.9" y2="-14704.9"></line> <line id="Ligne_343" class="st19" x1="-17350.2" y1="-14681.5" x2="-17357.7" y2="-14681.5"></line> <line id="Ligne_344" class="st19" x1="-17404.5" y1="-14681.5" x2="-17412.1" y2="-14681.5"></line> <line id="Ligne_345" class="st19" x1="-17359.3" y1="-14702.7" x2="-17363.8" y2="-14698.1"></line> </g> </g> <path id="Rectangle_1398" class="st5" d="M-16887.7-15439.2h-109.2c-9.8,0-17.7-7.9-17.7-17.7v-106.9c0-9.8,7.9-17.7,17.7-17.7 h109.2c9.8,0,17.7,7.9,17.7,17.7v106.9C-16870-15447.1-16878-15439.2-16887.7-15439.2z"></path> <g id="Rectangle_1402" transform="translate(-16954 -15528)"> <path class="st5" d="M-26.8-3.2h22.5c1.4,0,2.4,1,2.4,2.4v22.5c0,1.4-1,2.4-2.4,2.4h-22.5c-1.4,0-2.4-1-2.4-2.4V-0.8 C-29.2-2.1-28.2-3.2-26.8-3.2z"></path> <path class="st20" d="M-26.8-1.2h22.5C-4-1.2-3.9-1-3.9-0.8v22.5c0,0.2-0.2,0.4-0.4,0.4h-22.5c-0.2,0-0.4-0.2-0.4-0.4V-0.8 C-27.2-1-27.1-1.2-26.8-1.2z"></path> </g> <g id="Rectangle_1403" transform="translate(-16941 -15526)"> <path class="st8" d="M-30.2-3.6h4c0.9,0,1.6,0.7,1.6,1.6v4c0,0.9-0.7,1.6-1.6,1.6h-4c-0.9,0-1.6-0.7-1.6-1.6v-4 C-31.8-2.8-31-3.6-30.2-3.6z"></path> <path class="st20" d="M-29.3-1.6h2.4c0.2,0,0.4,0.2,0.4,0.4v2.4c0,0.2-0.2,0.4-0.4,0.4h-2.4c-0.2,0-0.4-0.2-0.4-0.4v-2.4 C-29.8-1.4-29.6-1.6-29.3-1.6z"></path> </g> <g id="Rectangle_1404" transform="translate(-16970 -15498)"> <path class="st5" d="M-23.7-9H0.5c1.4,0,2.4,1,2.4,2.4v24.1c0,1.4-1,2.4-2.4,2.4h-24.1c-1.4,0-2.4-1-2.4-2.4V-6.6 C-26.1-8-25.1-9-23.7-9z"></path> <path class="st20" d="M-23.7-7H0.5c0.2,0,0.4,0.2,0.4,0.4v24.1c0,0.2-0.2,0.4-0.4,0.4h-24.1c-0.2,0-0.4-0.2-0.4-0.4V-6.6 C-24.1-6.9-23.9-7-23.7-7z"></path> </g> <g id="Rectangle_1405" transform="translate(-16943 -15503)"> <path class="st5" d="M-29-8.1h28.2c1.4,0,2.4,1,2.4,2.4v28.2c0,1.4-1,2.4-2.4,2.4H-29c-1.4,0-2.4-1-2.4-2.4V-5.6 C-31.4-7-30.3-8.1-29-8.1z"></path> <path class="st20" d="M-29-6.1h28.2c0.2,0,0.4,0.2,0.4,0.4v28.2c0,0.2-0.2,0.4-0.4,0.4H-29c-0.2,0-0.4-0.2-0.4-0.4V-5.6 C-29.4-5.9-29.2-6.1-29-6.1z"></path> </g> <g id="Rectangle_1406" transform="translate(-16957 -15496)"> <path class="st8" d="M-27-9.4h4.8c0.9,0,1.6,0.7,1.6,1.6v5.6c0,0.9-0.7,1.6-1.6,1.6H-27c-0.9,0-1.6-0.7-1.6-1.6v-5.6 C-28.6-8.7-27.9-9.4-27-9.4z"></path> <path class="st20" d="M-26.2-7.4h3.2c0.2,0,0.4,0.2,0.4,0.4v4c0,0.2-0.2,0.4-0.4,0.4h-3.2c-0.2,0-0.4-0.2-0.4-0.4v-4 C-26.6-7.3-26.5-7.4-26.2-7.4z"></path> </g> <g id="Rectangle_1407" transform="translate(-16927 -15501)"> <path class="st8" d="M-32.9-8.5h4.8c0.9,0,1.6,0.7,1.6,1.6v5.6c0,0.9-0.7,1.6-1.6,1.6h-4.8c-0.9,0-1.6-0.7-1.6-1.6v-5.6 C-34.5-7.7-33.8-8.5-32.9-8.5z"></path> <path class="st20" d="M-32.1-6.4h3.2c0.2,0,0.4,0.2,0.4,0.4v4c0,0.2-0.2,0.4-0.4,0.4h-3.2c-0.2,0-0.4-0.2-0.4-0.4v-4 C-32.5-6.3-32.3-6.4-32.1-6.4z"></path> </g> <path id="Tracé_849" class="st21" d="M-16893.5-15494.2v-12.8l-5.7-2.8l-3.6-19.7h-23.7v35.3h37.8v8.1h-46.8"></path> <path id="Tracé_850" class="st21" d="M-16903.1-15522.3h-15.1v12h17"></path> <line id="Ligne_346" class="st22" x1="-16918.4" y1="-15503.1" x2="-16912" y2="-15503.1"></line> <path id="Tracé_851" class="st21" d="M-16893.5-15501.8h-5.9v6.8"></path> <path id="Tracé_852" class="st21" d="M-16926.6-15523.9v-14.1h-38.9"></path> <path id="Tracé_853" class="st23" d="M-16926.6-15494.2h-8.9"></path> <g id="Ellipse_558" transform="translate(-16870 -15483)"> <circle class="st5" cx="-39.2" cy="-5.5" r="6.4"></circle> <circle class="st21" cx="-39.2" cy="-5.5" r="8.4"></circle> </g> <circle id="Ellipse_559" class="st8" cx="-16909.2" cy="-15488.5" r="1.6"></circle> </g> </svg> 