<?xml version="1.0" encoding="UTF-8"?> <!-- Generator: Adobe Illustrator 23.0.1, SVG Export Plug-In . SVG Version: 6.00 Build 0) --> <svg xmlns="http://www.w3.org/2000/svg" xmlns:xlink="http://www.w3.org/1999/xlink" version="1.1" id="Calque_1" x="0px" y="0px" viewBox="0 0 737 756.6" style="enable-background:new 0 0 737 756.6;" xml:space="preserve"> <style type="text/css"> .st0{fill:#313131;} .st1{fill:#FFFFFF;} .st2{fill:#EDEDED;} .st3{fill:#37BC74;} .st4{opacity:0.486;fill:#369D5A;enable-background:new ;} .st5{fill:none;} .st6{opacity:0.215;fill:#FFFFFF;enable-background:new ;} </style> <g id="img_diffusion_contenu" transform="translate(-265 -1032)"> <path id="Rectangle_888" class="st0" d="M541,1264.2l271.7,57.8c35.6,7.6,58.4,42.6,50.8,78.3L813,1637.9 c-7.6,35.6-42.6,58.4-78.3,50.8L463,1630.9c-35.6-7.6-58.4-42.6-50.8-78.3l50.5-237.5C470.3,1279.4,505.4,1256.6,541,1264.2z"></path> <g id="Groupe_919" transform="translate(-20 8)"> <g transform="matrix(1, 0, 0, 1, 285, 1024)"> <path id="Union_39-2" class="st1" d="M521.5,375c12.2,0,22,9.8,22,22v162c0,12.2-9.8,22-22,22h-21.1l4.3,24.6L472,581H210.5 c-12.2,0-22-9.8-22-22V397c0-12.2,9.8-22,22-22H521.5z"></path> </g> <path id="Rectangle_992" class="st2" d="M510.5,1497.4v-52c0-7.7,6.3-14,14-14h106.4c7.7,0,14,6.3,14,14v52c0,7.7-6.3,14-14,14 H524.5C516.8,1511.4,510.5,1505.1,510.5,1497.4z"></path> <path id="Rectangle_995" class="st2" d="M667.5,1497.4v-52c0-7.7,6.3-14,14-14h106.4c7.7,0,14,6.3,14,14v52c0,7.7-6.3,14-14,14 H681.5C673.8,1511.4,667.5,1505.1,667.5,1497.4z"></path> <path id="Rectangle_993" class="st2" d="M510.5,1533.9L510.5,1533.9c0-3,2.5-5.5,5.5-5.5h112.4c3,0,5.5,2.5,5.5,5.5l0,0 c0,3-2.5,5.5-5.5,5.5H516C513,1539.4,510.5,1536.9,510.5,1533.9z"></path> <path id="Rectangle_998" class="st2" d="M668.5,1533.9L668.5,1533.9c0-3,2.5-5.5,5.5-5.5h123.4c3,0,5.5,2.5,5.5,5.5l0,0 c0,3-2.5,5.5-5.5,5.5H674C671,1539.4,668.5,1536.9,668.5,1533.9z"></path> <path id="Rectangle_1001" class="st2" d="M668.5,1561.9L668.5,1561.9c0-3,2.5-5.5,5.5-5.5h97.4c3,0,5.5,2.5,5.5,5.5l0,0 c0,3-2.5,5.5-5.5,5.5H674C671,1567.4,668.5,1564.9,668.5,1561.9z"></path> <path id="Rectangle_1000" class="st2" d="M510.5,1562.9L510.5,1562.9c0-3,2.5-5.5,5.5-5.5h97.4c3,0,5.5,2.5,5.5,5.5l0,0 c0,3-2.5,5.5-5.5,5.5H516C513,1568.4,510.5,1565.9,510.5,1562.9z"></path> </g> <g id="Groupe_917" transform="translate(2 -79)"> <g transform="matrix(1, 0, 0, 1, 263, 1111)"> <path id="Union_38-2" class="st3" d="M641.5,106c12.2,0,22,9.8,22,22v184.3c0,12.2-9.8,22-22,22h-25.7l4.8,27.2l-36.2-27.2H292.5 c-12.2,0-22-9.8-22-22V128c0-12.2,9.8-22,22-22H641.5z"></path> </g> <path id="Rectangle_986" class="st4" d="M577,1395.9h303c3,0,5.5,2.5,5.5,5.5l0,0c0,3-2.5,5.5-5.5,5.5H577c-3,0-5.5-2.5-5.5-5.5 l0,0C571.5,1398.4,574,1395.9,577,1395.9z"></path> <g transform="matrix(1, 0, 0, 1, 263, 1111)"> <circle id="Ellipse_432-2" class="st1" cx="387.5" cy="291" r="17"></circle> </g> <g id="Polygone_1" transform="translate(696 1268.5) rotate(90)"> <path class="st1" d="M67.8-24.5H44.2c-0.5,0-0.8-0.4-0.9-0.5c-0.1-0.2-0.3-0.6,0-1l11.8-20.1c0.3-0.4,0.7-0.5,0.9-0.5 s0.6,0,0.9,0.5L68.7-26c0.3,0.5,0.1,0.9,0,1C68.5-24.9,68.3-24.5,67.8-24.5z"></path> <path class="st1" d="M56-43.6L46-26.5h20L56-43.6 M56-48.6c1,0,2,0.5,2.6,1.5L70.4-27c1.2,2-0.3,4.5-2.6,4.5H44.2 c-2.3,0-3.8-2.5-2.6-4.5l11.8-20.1C54-48.1,55-48.6,56-48.6z"></path> </g> <g id="Ellipse_433" transform="translate(629 1238)"> <circle class="st5" cx="99.5" cy="87" r="48"></circle> <path class="st1" d="M99.5,135c-26.5,0-48-21.5-48-48s21.5-48,48-48s48,21.5,48,48S126,135,99.5,135z M99.5,46 c-22.6,0-41,18.4-41,41s18.4,41,41,41s41-18.4,41-41S122.1,46,99.5,46z"></path> </g> </g> <g id="Groupe_918" transform="translate(44 -68)"> <g transform="matrix(1, 0, 0, 1, 221, 1100)"> <path id="Union_41-2" class="st1" d="M116.9,261.1H98.5c-12.2,0-22-9.8-22-22V86c0-12.2,9.8-22,22-22h289c12.2,0,22,9.8,22,22 v153.1c0,12.2-9.8,22-22,22l0,0h-244l-30.7,23.5L116.9,261.1z"></path> </g> <path id="Rectangle_979" class="st3" d="M353.5,1209.9h63c11,0,20,9,20,20v63c0,11-9,20-20,20h-63c-11,0-20-9-20-20v-63 C333.5,1218.9,342.5,1209.9,353.5,1209.9z"></path> <path id="Rectangle_980" class="st2" d="M466,1227.9h122c3,0,5.5,2.5,5.5,5.5l0,0c0,3-2.5,5.5-5.5,5.5H466c-3,0-5.5-2.5-5.5-5.5 l0,0C460.5,1230.4,463,1227.9,466,1227.9z"></path> <path id="Rectangle_981" class="st2" d="M466,1256.9h105c3,0,5.5,2.5,5.5,5.5l0,0c0,3-2.5,5.5-5.5,5.5H466c-3,0-5.5-2.5-5.5-5.5 l0,0C460.5,1259.4,463,1256.9,466,1256.9z"></path> <path id="Rectangle_982" class="st2" d="M466,1284.9h58c3,0,5.5,2.5,5.5,5.5l0,0c0,3-2.5,5.5-5.5,5.5h-58c-3,0-5.5-2.5-5.5-5.5 l0,0C460.5,1287.4,463,1284.9,466,1284.9z"></path> <g id="Groupe_916" transform="translate(8 -3)"> <g id="Polygone_3" transform="translate(315 1215)"> <path class="st5" d="M65.4,44.9c1.6-2.3,4.7-2.8,7-1.3c0.5,0.3,0.9,0.8,1.3,1.3l8.5,12.2c1.6,2.3,1,5.4-1.3,7 c-0.8,0.6-1.8,0.9-2.8,0.9H61c-2.8,0-5-2.2-5-5c0-1,0.3-2,0.9-2.8L65.4,44.9z"></path> <path class="st1" d="M69.5,46.8c-0.2,0-0.6,0.1-0.8,0.4l-8.5,12.2c-0.3,0.4-0.2,0.8-0.1,1c0.2,0.3,0.4,0.6,0.9,0.6h16.9 c0.5,0,0.8-0.3,0.9-0.5c0.1-0.2,0.2-0.6-0.1-1l-8.4-12.3C70.1,46.9,69.7,46.8,69.5,46.8 M69.5,42.8c1.6,0,3.1,0.7,4.1,2.2 l8.5,12.2C84.4,60.5,82,65,78,65H61c-4,0-6.4-4.5-4.1-7.8L65.4,45C66.4,43.5,67.9,42.8,69.5,42.8z"></path> </g> <g id="Polygone_4" transform="translate(294 1209)"> <path class="st3" d="M85.1,69H60.9c-1.1,0-2.1-0.6-2.6-1.6s-0.5-2.1,0.2-3.1l12-18C71.1,45.4,72,45,73,45s1.9,0.5,2.5,1.3 l12.1,18c0.6,0.9,0.7,2.1,0.2,3.1C87.2,68.4,86.2,69,85.1,69z"></path> <path class="st1" d="M73,47c-0.2,0-0.6,0.1-0.8,0.4l-12.1,18c-0.3,0.4-0.2,0.8-0.1,1c0.1,0.3,0.4,0.6,0.9,0.6h24.2 c0.5,0,0.8-0.3,0.9-0.5c0.1-0.2,0.2-0.6-0.1-1l-12.1-18C73.6,47,73.2,47,73,47 M73,43c1.6,0,3.2,0.7,4.2,2.2l12.1,18 c2.2,3.3-0.1,7.8-4.2,7.8H60.9c-4,0-6.4-4.5-4.2-7.8l12.1-18C69.8,43.7,71.4,43,73,43z"></path> </g> </g> </g> <g id="Groupe_915" transform="translate(-5 -66)"> <path id="Rectangle_988" class="st3" d="M449.5,1433.9h38c11,0,20,9,20,20v38c0,11-9,20-20,20h-38c-11,0-20-9-20-20v-38 C429.5,1442.9,438.5,1433.9,449.5,1433.9z"></path> <g id="Groupe_913" transform="translate(-1018 1770.5) rotate(-90)"> <path class="st1" d="M273.5,1481.5c0-1.9,1.6-3.5,3.5-3.5c14.9,0,27,12.1,27,27c0,1.9-1.6,3.5-3.5,3.5s-3.5-1.6-3.5-3.5 c0-11-9-20-20-20C275.1,1485,273.5,1483.4,273.5,1481.5z"></path> <path class="st1" d="M273.5,1464.5c0-1.9,1.6-3.5,3.5-3.5c24.3,0,44,19.7,44,44c0,1.9-1.6,3.5-3.5,3.5s-3.5-1.6-3.5-3.5 c0-20.4-16.6-37-37-37C275.1,1468,273.5,1466.4,273.5,1464.5z"></path> <path class="st1" d="M273.5,1498.5c0-1.9,1.6-3.5,3.5-3.5c5.5,0,10,4.5,10,10c0,1.9-1.6,3.5-3.5,3.5s-3.5-1.6-3.5-3.5 c0-1.7-1.3-3-3-3C275.1,1502,273.5,1500.4,273.5,1498.5z"></path> </g> </g> <g id="Groupe_914" transform="translate(15 -40)"> <g transform="matrix(1, 0, 0, 1, 250, 1072)"> <path id="Union_40-2" class="st3" d="M132,650.2h-13.5c-12.2,0-22-9.8-22-22V502c0-12.2,9.8-22,22-22h249c12.2,0,22,9.8,22,22 v126.3c0,12.2-9.8,22-22,22h-212l-27,20.3L132,650.2z"></path> </g> <path id="Rectangle_983" class="st6" d="M390,1591.9h181c3,0,5.5,2.5,5.5,5.5l0,0c0,3-2.5,5.5-5.5,5.5H390c-3,0-5.5-2.5-5.5-5.5 l0,0C384.5,1594.4,387,1591.9,390,1591.9z"></path> <path id="Rectangle_987" class="st6" d="M390,1647.9h181c3,0,5.5,2.5,5.5,5.5l0,0c0,3-2.5,5.5-5.5,5.5H390c-3,0-5.5-2.5-5.5-5.5 l0,0C384.5,1650.4,387,1647.9,390,1647.9z"></path> <path id="Rectangle_984" class="st6" d="M390,1619.9h203c3,0,5.5,2.5,5.5,5.5l0,0c0,3-2.5,5.5-5.5,5.5H390c-3,0-5.5-2.5-5.5-5.5 l0,0C384.5,1622.4,387,1619.9,390,1619.9z"></path> <path id="Rectangle_985" class="st6" d="M390,1675.9h92c3,0,5.5,2.5,5.5,5.5l0,0c0,3-2.5,5.5-5.5,5.5h-92c-3,0-5.5-2.5-5.5-5.5 l0,0C384.5,1678.4,387,1675.9,390,1675.9z"></path> </g> </g> </svg> 